<svg xmlns="http://www.w3.org/2000/svg" xmlns:xlink="http://www.w3.org/1999/xlink" width="88px" height="48px" viewBox="0 0 88 48" version="1.1">
    <!-- Generator: Sketch 47.1 (45422) - http://www.bohemiancoding.com/sketch -->
    <desc>Created with Sketch.</desc>
    <defs/>
    <g id="Page-1" stroke="none" stroke-width="1" fill="none" fill-rule="evenodd">
        <g id="1024" transform="translate(-32.000000, -56.000000)">
            <g id="Group-Copy-2" transform="translate(32.000000, 56.000000)">
                <rect id="Rectangle-2" x="0" y="0" width="94" height="48"/>
                <polygon id="bg" fill="#0079C8" points="0 48 48.001 48 48.001 0 0 0"/>
                <path d="M44.9399,14.6685 C44.4209,14.6685 43.7159,14.6385 43.2949,14.4955 C42.7979,14.3255 42.3599,13.9875 41.8959,13.6305 C41.6629,13.4515 41.4219,13.2665 41.1629,13.0935 C40.8459,12.8835 40.5829,12.7855 40.3309,12.7855 C39.9929,12.7855 39.6629,12.9695 39.2629,13.3825 C38.7209,13.9395 37.8579,15.2045 37.5129,15.7225 C37.4909,15.7545 37.4609,15.7905 37.4179,15.7905 C37.3329,15.7905 37.3309,15.6805 37.3309,15.6435 C37.3149,14.1955 37.0869,6.2925 36.9289,3.9325 C36.8579,2.8885 36.5349,2.2405 36.0829,2.2405 C35.7189,2.2405 35.1749,2.7235 34.8349,4.0855 C33.9669,7.5505 32.1179,15.2565 31.3229,19.1705 C31.2999,19.2785 31.1789,19.2775 31.1569,19.1705 C31.0679,18.7705 30.9889,18.3165 30.9149,17.9335 C30.6769,16.7275 30.4719,15.6845 30.0659,15.1105 C29.6039,14.4595 28.9209,14.4185 28.0919,14.9665 C27.9099,15.0885 27.7329,15.2395 27.5469,15.4005 C27.0159,15.8575 26.4159,16.3765 25.4169,16.3765 L15.6569,16.3765 L15.4179,17.6705 L25.6869,17.6705 C26.7369,17.6705 27.7109,17.0665 28.2929,16.6495 C28.5869,16.4385 28.7919,16.3145 28.9549,16.3145 C29.1809,16.3145 29.2819,16.5435 29.3649,16.8885 C29.4069,17.0575 29.4569,17.2905 29.5139,17.5605 C29.7089,18.4535 30.0009,19.8625 30.3709,20.7995 C30.5449,21.2345 30.8009,21.4755 31.0939,21.4755 C31.5429,21.4755 32.0009,20.9445 32.2589,20.1245 C32.6059,19.0295 34.6819,10.0325 35.5579,6.2645 C35.5939,6.1095 35.6139,6.0225 35.6159,6.0155 C35.6309,5.9495 35.6749,5.9055 35.7269,5.9055 C35.7729,5.9055 35.8239,5.9445 35.8259,6.0295 L35.8269,6.0445 C35.8939,9.8565 36.0829,16.5535 36.3669,17.2405 C36.5229,17.6205 36.7639,17.8215 37.0629,17.8215 C37.4079,17.8215 37.8239,17.5435 38.1189,17.1125 C38.2679,16.8965 38.4579,16.6135 38.6579,16.3145 C39.1539,15.5785 39.7159,14.7435 39.8809,14.5655 C40.1289,14.3025 40.4129,14.3025 40.8169,14.5785 C40.8759,14.6175 40.9459,14.6685 41.0279,14.7285 C41.4589,15.0405 42.1789,15.4705 42.9889,15.6925 C43.5249,15.8405 44.2159,15.8715 44.7009,15.8715 C45.0129,15.8715 45.3459,15.8585 45.4429,15.8525 L45.6649,14.6535 C45.5479,14.6595 45.2319,14.6685 44.9399,14.6685 L44.9399,14.6685 Z M18.9169,7.6715 C20.7779,7.7755 20.1989,11.6585 18.2239,11.5495 C16.2009,11.4375 16.8579,7.5575 18.9169,7.6715 L18.9169,7.6715 Z M15.9969,14.5225 L16.5599,11.4615 C16.7789,11.8985 17.4029,12.4535 18.3979,12.4535 C20.1899,12.4535 21.2979,11.0555 21.4089,9.4185 C21.5279,7.6785 20.5059,6.6765 19.3189,6.6765 C18.2909,6.6765 17.5899,7.1765 17.2329,7.6975 L17.2479,7.6235 C17.3609,7.0875 16.9039,6.7905 16.5169,6.7905 L16.1329,6.7905 C16.1329,6.7905 15.0889,12.7615 14.9459,13.4815 C14.7759,14.3265 15.4629,14.5225 15.6799,14.5225 L15.9969,14.5225 Z M13.9999,6.7905 L13.6389,6.7905 C13.6389,6.7905 13.1069,9.8385 13.0469,10.1865 C12.9179,10.9335 12.5579,11.4435 11.5469,11.4435 C10.9719,11.4435 10.4109,11.0965 10.5429,10.3185 C10.5939,10.0175 10.9749,7.8015 11.0079,7.6235 C11.1139,7.0235 10.6039,6.7905 10.1829,6.7905 L9.8629,6.7905 C9.7859,7.2525 9.4349,9.2025 9.3019,9.9665 C9.2479,10.2735 9.2279,10.5855 9.2519,10.7875 C9.3709,11.8225 10.2799,12.4535 11.4039,12.4535 C13.3459,12.4535 14.0759,11.4395 14.3079,10.2345 C14.3849,9.8375 14.7529,7.8255 14.7809,7.6235 C14.8649,7.0235 14.3719,6.7905 13.9999,6.7905 L13.9999,6.7905 Z M6.2559,7.8395 C6.0839,7.8975 5.8549,7.9125 5.4379,7.9125 L4.5029,7.9125 L4.9419,5.4285 L6.1649,5.4285 C7.6319,5.4285 7.5169,7.4245 6.2559,7.8395 L6.2559,7.8395 Z M5.7249,11.3795 C5.5669,11.4185 5.3159,11.4395 4.7909,11.4395 L3.8779,11.4395 L4.3389,8.8355 L5.6929,8.8355 C7.4799,8.8355 7.3169,10.9845 5.7249,11.3795 L5.7249,11.3795 Z M8.6679,6.4095 C8.6679,5.1545 7.8619,4.5705 6.4459,4.5705 C5.5759,4.5705 4.2059,4.5685 3.7069,4.5685 L2.3249,12.3335 C2.4959,12.3335 3.9889,12.3335 4.8339,12.3325 C5.4059,12.3325 5.9529,12.3135 6.2599,12.2495 C7.6679,11.9515 8.2389,10.9285 8.3519,10.1775 C8.5089,9.1375 7.8529,8.4505 7.1069,8.2845 C7.6669,8.1635 8.6679,7.5865 8.6679,6.4095 L8.6679,6.4095 Z M25.3189,7.5735 C27.3429,7.6865 26.6839,11.5545 24.6269,11.4395 C22.7659,11.3365 23.3439,7.4645 25.3189,7.5735 L25.3189,7.5735 Z M24.2729,12.4505 C25.3629,12.4505 25.9479,11.9675 26.3039,11.4165 L26.2839,11.5005 C26.1809,12.0165 26.6109,12.3335 27.0149,12.3335 L27.3659,12.3335 L28.3419,6.7845 L27.1339,6.7845 L26.9729,7.6305 C26.7549,7.1935 26.1399,6.6695 25.1449,6.6695 C23.3889,6.6695 22.3479,8.1165 22.1729,9.6575 C21.9739,11.4195 23.1109,12.4505 24.2729,12.4505 L24.2729,12.4505 Z" id="Fill-2" fill="#FFFFFF"/>
                <path d="M66.2041,8.8799 C66.2001,8.9249 66.1941,8.9749 66.1861,9.0269 L63.3581,9.0269 C63.3891,8.8839 63.4491,8.7319 63.5401,8.5729 C63.6311,8.4139 63.7461,8.2679 63.8871,8.1359 C64.0261,8.0029 64.1911,7.8949 64.3811,7.8119 C64.5701,7.7289 64.7821,7.6869 65.0171,7.6869 C65.3951,7.6869 65.6881,7.7889 65.8971,7.9939 C66.1051,8.1979 66.2101,8.4479 66.2101,8.7429 C66.2101,8.7889 66.2081,8.8349 66.2041,8.8799 M67.2431,7.9139 C67.1301,7.6419 66.9711,7.4139 66.7661,7.2329 C66.5611,7.0509 66.3211,6.9139 66.0451,6.8229 C65.7681,6.7329 65.4681,6.6869 65.1421,6.6869 C64.6801,6.6869 64.2541,6.7719 63.8631,6.9429 C63.4741,7.1129 63.1371,7.3499 62.8521,7.6529 C62.5681,7.9559 62.3471,8.3099 62.1871,8.7149 C62.0281,9.1199 61.9491,9.5579 61.9491,10.0269 C61.9491,10.4139 62.0141,10.7559 62.1421,11.0549 C62.2711,11.3549 62.4491,11.6069 62.6771,11.8109 C62.9031,12.0159 63.1731,12.1729 63.4831,12.2819 C63.7941,12.3919 64.1351,12.4469 64.5061,12.4469 C64.8821,12.4469 65.2431,12.3869 65.5821,12.2749 C66.0351,12.1249 66.4581,11.8619 66.7411,11.5639 C66.9781,11.3079 66.9481,10.7919 66.3371,10.5289 C66.3191,10.5219 66.3111,10.5179 66.3111,10.5179 L66.3101,10.5179 C66.2721,10.5669 66.2321,10.6139 66.1911,10.6599 C65.9981,10.8699 65.7831,11.0389 65.5451,11.1639 C65.2991,11.2919 65.0021,11.3569 64.6531,11.3569 C64.4491,11.3569 64.2601,11.3239 64.0851,11.2599 C63.9111,11.1959 63.7601,11.1089 63.6311,10.9989 C63.5021,10.8889 63.4011,10.7579 63.3301,10.6069 C63.2581,10.4549 63.2221,10.2889 63.2221,10.1069 C63.2221,10.0619 63.2251,10.0199 63.2331,9.9819 L67.2771,9.9819 C67.3231,9.7929 67.3571,9.5899 67.3801,9.3739 C67.4021,9.1579 67.4141,8.9899 67.4141,8.8679 C67.4141,8.5049 67.3571,8.1869 67.2431,7.9139" id="Fill-4" fill="#0079C8"/>
                <path d="M84.4531,19.0435 C84.4491,19.0885 84.4441,19.1385 84.4361,19.1915 L81.6071,19.1915 C81.6381,19.0475 81.6981,18.8965 81.7891,18.7365 C81.8801,18.5775 81.9951,18.4325 82.1361,18.2995 C82.2761,18.1675 82.4401,18.0595 82.6301,17.9755 C82.8191,17.8925 83.0311,17.8505 83.2661,17.8505 C83.6441,17.8505 83.9381,17.9525 84.1461,18.1575 C84.3551,18.3615 84.4591,18.6115 84.4591,18.9075 C84.4591,18.9525 84.4571,18.9985 84.4531,19.0435 M85.4931,18.0775 C85.3801,17.8055 85.2211,17.5785 85.0151,17.3965 C84.8111,17.2145 84.5711,17.0785 84.2951,16.9875 C84.0171,16.8965 83.7171,16.8515 83.3911,16.8515 C82.9291,16.8515 82.5031,16.9365 82.1131,17.1065 C81.7231,17.2765 81.3861,17.5135 81.1011,17.8165 C80.8181,18.1195 80.5971,18.4735 80.4371,18.8785 C80.2781,19.2845 80.1981,19.7215 80.1981,20.1905 C80.1981,20.5775 80.2631,20.9195 80.3911,21.2195 C80.5201,21.5185 80.6981,21.7705 80.9261,21.9745 C81.1531,22.1795 81.4221,22.3365 81.7321,22.4465 C82.0431,22.5565 82.3841,22.6105 82.7551,22.6105 C83.1311,22.6105 83.4931,22.5505 83.8311,22.4385 C84.2851,22.2895 84.7081,22.0255 84.9901,21.7275 C85.2271,21.4725 85.1981,20.9555 84.5871,20.6935 C84.5681,20.6855 84.5601,20.6825 84.5601,20.6825 L84.5601,20.6815 C84.5211,20.7315 84.4811,20.7775 84.4401,20.8235 C84.2481,21.0345 84.0331,21.2025 83.7951,21.3275 C83.5481,21.4565 83.2511,21.5205 82.9021,21.5205 C82.6981,21.5205 82.5091,21.4885 82.3351,21.4235 C82.1601,21.3595 82.0091,21.2725 81.8801,21.1625 C81.7511,21.0525 81.6511,20.9215 81.5791,20.7705 C81.5071,20.6195 81.4711,20.4525 81.4711,20.2705 C81.4711,20.2255 81.4741,20.1835 81.4821,20.1455 L85.5271,20.1455 C85.5721,19.9565 85.6061,19.7535 85.6301,19.5375 C85.6521,19.3215 85.6631,19.1535 85.6631,19.0325 C85.6631,18.6685 85.6061,18.3505 85.4931,18.0775" id="Fill-6" fill="#0079C8"/>
                <path d="M77.1523,5.4341 C77.2423,4.8821 76.9123,4.5781 76.1853,4.5781 L75.9593,4.5801 C75.9593,4.5801 74.9363,10.5901 74.7963,11.3101 C74.6303,12.1571 75.3173,12.3531 75.5353,12.3531 L75.9263,12.3531 L76.4793,9.2751 L77.1523,5.4341 Z" id="Fill-8" fill="#0079C8"/>
                <path d="M87.1563,8.4185 C87.1563,8.1905 87.1203,7.9725 87.0483,7.7645 C86.9753,7.5555 86.8653,7.3755 86.7183,7.2235 C86.5693,7.0715 86.3843,6.9505 86.1603,6.8595 C85.9363,6.7685 85.6733,6.7225 85.3693,6.7225 C84.9593,6.7225 84.6143,6.8155 84.3333,7.0015 C84.0523,7.1875 83.8363,7.4015 83.6843,7.6445 L83.6603,7.6445 L84.0483,5.4345 C84.1363,4.8815 83.8063,4.5785 83.0803,4.5785 L82.8533,4.5805 C82.8533,4.5805 81.8343,10.5765 81.6933,11.2955 C81.5273,12.1425 82.2153,12.3385 82.4323,12.3385 L82.8243,12.3385 L83.3583,9.3615 L83.3603,9.3625 C83.3903,9.1735 83.4403,8.9875 83.5193,8.8055 C83.5993,8.6235 83.7023,8.4615 83.8273,8.3215 C83.9523,8.1815 84.0993,8.0695 84.2703,7.9855 C84.4413,7.9025 84.6363,7.8605 84.8563,7.8605 C85.1983,7.8605 85.4333,7.9535 85.5623,8.1395 C85.6913,8.3255 85.7563,8.5405 85.7563,8.7825 C85.7563,8.8535 85.7523,8.9235 85.7443,8.9945 C85.5513,10.0945 85.3853,11.0365 85.3383,11.2945 C85.1813,12.1435 85.8803,12.3385 86.0973,12.3385 L86.4893,12.3385 L87.0393,9.2755 L87.0993,8.9285 C87.1263,8.7755 87.1563,8.6075 87.1563,8.4185" id="Fill-10" fill="#0079C8"/>
                <path d="M71.2256,7.5679 C73.2506,7.6809 72.5916,11.5509 70.5336,11.4369 C68.6706,11.3339 69.2496,7.4589 71.2256,7.5679 M70.1776,12.4479 C71.2696,12.4479 71.8556,11.9649 72.2116,11.4139 L72.1916,11.4969 C72.0886,12.0139 72.5186,12.3309 72.9236,12.3309 L73.2756,12.3309 L74.2506,6.7779 L73.0426,6.7779 L72.8806,7.6249 C72.6626,7.1879 72.0466,6.6629 71.0516,6.6629 C69.2936,6.6629 68.2516,8.1109 68.0786,9.6529 C67.8786,11.4169 69.0166,12.4479 70.1776,12.4479" id="Fill-13" fill="#0079C8"/>
                <path d="M72.6504,17.7417 C74.6754,17.8547 74.0154,21.7247 71.9574,21.6107 C70.0944,21.5077 70.6734,17.6327 72.6504,17.7417 M71.6014,22.6217 C72.6944,22.6217 73.2794,22.1387 73.6354,21.5877 L73.6164,21.6707 C73.5124,22.1877 73.9424,22.5047 74.3474,22.5047 L74.6994,22.5047 L75.6744,16.9517 L74.4664,16.9517 L74.3054,17.7987 C74.0874,17.3617 73.4704,16.8367 72.4754,16.8367 C70.7184,16.8367 69.6764,18.2847 69.5024,19.8267 C69.3024,21.5907 70.4404,22.6217 71.6014,22.6217" id="Fill-15" fill="#0079C8"/>
                <path d="M60.8242,4.5781 L60.6472,4.5781 C60.6472,4.5781 60.3642,6.2441 60.0852,7.8851 L56.4602,7.8851 L56.8872,5.4121 C56.9982,4.8761 56.5682,4.5781 55.9432,4.5781 L55.7672,4.5781 C55.7672,4.5781 54.6662,11.0271 54.6132,11.2971 C54.4482,12.1431 55.1362,12.3401 55.3532,12.3401 L55.6712,12.3401 L56.2892,8.8601 L59.9232,8.8601 C59.9232,8.8601 59.5412,11.0271 59.4932,11.2971 C59.3292,12.1431 60.0162,12.3401 60.2342,12.3401 L60.5522,12.3401 L61.0972,9.2761 L61.7682,5.4121 C61.8792,4.8761 61.4492,4.5781 60.8242,4.5781" id="Fill-17" fill="#0079C8"/>
                <path d="M76.9893,16.9438 L78.2813,16.9438 C78.2813,16.9438 78.1303,17.8878 78.1233,17.9478 L78.1453,17.9478 C78.3353,17.6298 78.5583,17.3738 78.8163,17.1798 C79.0743,16.9858 79.3853,16.8898 79.7503,16.8898 C79.8023,16.8898 79.8603,16.8918 79.9213,16.8958 C79.9813,16.8998 80.0343,16.9088 80.0803,16.9238 L79.8983,18.1648 C79.8143,18.1418 79.7403,18.1268 79.6763,18.1188 C79.6113,18.1108 79.5493,18.1078 79.4883,18.1078 C79.1773,18.1078 78.9233,18.1648 78.7253,18.2778 C78.5283,18.3918 78.3693,18.5288 78.2483,18.6878 C78.1263,18.8468 78.0393,19.0108 77.9863,19.1768 C77.9323,19.3438 77.8983,19.4768 77.8843,19.5758 L77.3703,22.5058 L76.9783,22.5058 C76.7613,22.5058 76.0533,22.3098 76.2183,21.4628 L76.9893,16.9438 Z" id="Fill-19" fill="#0079C8"/>
                <path d="M57.7461,21.2349 C57.5081,21.3809 57.2311,21.4539 56.9271,21.4539 C56.7751,21.4539 56.6301,21.4299 56.4961,21.3809 C56.3611,21.3329 56.2431,21.2649 56.1431,21.1789 C56.0441,21.0939 55.9641,20.9879 55.9061,20.8649 C55.8481,20.7409 55.8181,20.6059 55.8181,20.4629 C55.8181,20.2759 55.8531,20.1069 55.9221,19.9589 C55.9911,19.8109 56.0851,19.6789 56.2021,19.5689 C56.3201,19.4579 56.4631,19.3599 56.6261,19.2769 C56.7851,19.1949 56.9551,19.1229 57.1301,19.0609 L58.4201,20.6319 C58.2081,20.8889 57.9811,21.0919 57.7461,21.2349 L57.7461,21.2349 Z M57.4811,15.9889 C57.6501,15.8059 57.8771,15.7139 58.1551,15.7139 C58.3901,15.7139 58.5751,15.7839 58.7051,15.9239 C58.8361,16.0639 58.9021,16.2529 58.9021,16.4849 C58.9021,16.6249 58.8691,16.7589 58.8041,16.8809 C58.7371,17.0059 58.6441,17.1229 58.5291,17.2299 C58.4131,17.3379 58.2751,17.4379 58.1201,17.5269 C57.9701,17.6139 57.8081,17.6899 57.6361,17.7539 C57.5291,17.6279 57.4341,17.4639 57.3521,17.2669 C57.2671,17.0639 57.2251,16.8669 57.2251,16.6819 C57.2251,16.4059 57.3111,16.1729 57.4811,15.9889 L57.4811,15.9889 Z M59.9511,20.6239 L59.9521,20.6239 L59.9501,20.6219 L60.0291,20.5339 L60.3391,20.1609 C60.8601,19.4759 60.3941,18.9759 60.0361,18.7329 C59.9601,18.6809 59.9421,18.6689 59.9401,18.6669 C59.9381,18.6659 59.9381,18.6659 59.9361,18.6639 L59.9351,18.6649 L59.9351,18.6639 L59.1971,19.7159 L58.2461,18.5619 C58.8111,18.3099 59.2671,18.0159 59.6001,17.6889 C59.9441,17.3529 60.1191,16.9389 60.1191,16.4589 C60.1191,16.1799 60.0661,15.9299 59.9621,15.7139 C59.8581,15.4999 59.7171,15.3139 59.5411,15.1639 C59.3661,15.0139 59.1531,14.8979 58.9101,14.8179 C58.6681,14.7399 58.4041,14.6999 58.1271,14.6999 C57.8351,14.6999 57.5571,14.7499 57.3001,14.8459 C57.0421,14.9419 56.8161,15.0819 56.6271,15.2599 C56.4371,15.4389 56.2851,15.6579 56.1741,15.9119 C56.0631,16.1649 56.0081,16.4529 56.0081,16.7669 C56.0081,17.0379 56.0531,17.2979 56.1421,17.5409 C56.2261,17.7719 56.3371,17.9889 56.4711,18.1869 C56.2061,18.2909 55.9521,18.4139 55.7131,18.5539 C55.4641,18.6989 55.2461,18.8729 55.0641,19.0679 C54.8831,19.2649 54.7361,19.4909 54.6291,19.7399 C54.5211,19.9899 54.4681,20.2689 54.4681,20.5679 C54.4681,20.9039 54.5271,21.2029 54.6451,21.4559 C54.7641,21.7099 54.9291,21.9259 55.1361,22.0979 C55.3441,22.2689 55.5931,22.3999 55.8781,22.4849 C56.1631,22.5699 56.4791,22.6139 56.8211,22.6139 C57.2251,22.6139 57.6301,22.5319 58.0201,22.3729 C58.3971,22.2179 58.7881,21.9429 59.1831,21.5559 C59.3411,21.7499 59.5041,21.9499 59.5581,22.0179 C60.0991,22.6909 60.7741,22.2469 60.9371,22.1019 C60.9791,22.0649 61.0131,22.0329 61.0631,21.9719 L59.9511,20.6239 Z" id="Fill-25" fill="#0079C8"/>
                <path d="M70.0352,15.8989 L70.0272,15.8879 C69.9142,15.7189 69.7672,15.5609 69.5912,15.4199 C69.4152,15.2779 69.2132,15.1569 68.9912,15.0579 C68.7682,14.9599 68.5262,14.8809 68.2682,14.8249 C68.0122,14.7679 67.7422,14.7399 67.4682,14.7399 C66.8482,14.7399 66.2632,14.8629 65.7272,15.1059 C65.1932,15.3489 64.7212,15.6839 64.3222,16.1029 C63.9252,16.5219 63.6092,17.0199 63.3842,17.5819 C63.1592,18.1449 63.0452,18.7589 63.0452,19.4059 C63.0452,19.8859 63.1272,20.3289 63.2892,20.7229 C63.4512,21.1169 63.6812,21.4609 63.9732,21.7419 C64.2662,22.0239 64.6222,22.2459 65.0312,22.4009 C65.4392,22.5559 65.9002,22.6339 66.3992,22.6339 C66.7512,22.6339 67.0802,22.5989 67.3762,22.5279 C67.5232,22.4929 67.6662,22.4509 67.8032,22.4019 L67.8182,22.3969 C67.9862,22.3299 68.1462,22.2509 68.3022,22.1599 C68.8012,21.8699 68.7912,21.1369 68.3842,20.7869 L68.3212,20.7349 C68.1092,20.9469 67.8742,21.1169 67.6202,21.2329 C67.2862,21.3869 66.9292,21.4649 66.5582,21.4649 C66.2172,21.4649 65.9092,21.4049 65.6442,21.2859 C65.3792,21.1679 65.1552,21.0069 64.9772,20.8089 C64.8002,20.6099 64.6622,20.3729 64.5682,20.1049 C64.4732,19.8359 64.4262,19.5439 64.4262,19.2369 C64.4262,18.8169 64.5002,18.4029 64.6472,18.0039 C64.7942,17.6069 65.0012,17.2449 65.2642,16.9299 C65.5252,16.6159 65.8442,16.3609 66.2112,16.1719 C66.5772,15.9839 66.9852,15.8879 67.4262,15.8879 C67.6272,15.8879 67.8122,15.9129 67.9762,15.9619 C68.1402,16.0109 68.2912,16.0739 68.4232,16.1509 C68.4892,16.1889 68.5522,16.2309 68.6082,16.2749 C68.6092,16.2749 68.6092,16.2749 68.6102,16.2749 C68.6662,16.3189 68.7182,16.3639 68.7642,16.4119 C68.8562,16.5079 68.9312,16.5999 68.9892,16.6859 L70.0342,15.8999 L70.0332,15.8999 L70.0352,15.8989 Z" id="Fill-27" fill="#0079C8"/>
                <path d="M79.9717,8.04 L81.1917,8.04 L81.3847,6.947 L80.1607,6.947 L80.2787,6.181 C80.3547,5.627 79.9797,5.347 79.4017,5.347 L79.1087,5.347 L78.8357,6.947 L77.8917,6.947 L77.6977,8.04 L78.6547,8.04 L78.2107,10.495 C78.1877,10.601 78.1707,10.716 78.1597,10.841 C78.1487,10.966 78.1427,11.081 78.1427,11.187 C78.1427,11.565 78.2507,11.87 78.4937,12.101 C78.5867,12.19 78.8987,12.45 79.7227,12.447 C79.8517,12.447 80.1647,12.434 80.5537,12.299 L80.6337,11.286 C80.5577,11.306 80.4757,11.322 80.3887,11.335 C80.3017,11.348 80.2127,11.354 80.1207,11.354 C79.9237,11.354 79.7667,11.317 79.6497,11.242 C79.5317,11.166 79.4727,11.031 79.4727,10.834 C79.4727,10.737 79.4847,10.631 79.5067,10.518 L79.9717,8.04 Z" id="Fill-29" fill="#0079C8"/>
            </g>
        </g>
    </g>
</svg>